<?xml version="1.0" encoding="utf-8"?>
<!-- Generator: Adobe Illustrator 26.0.1, SVG Export Plug-In . SVG Version: 6.00 Build 0)  -->
<svg version="1.1" id="Layer_1" xmlns="http://www.w3.org/2000/svg" xmlns:xlink="http://www.w3.org/1999/xlink" x="0px" y="0px"
	 viewBox="0 0 75 75" style="enable-background:new 0 0 75 75;" xml:space="preserve">
<style type="text/css">
	.st0{fill:none;stroke:#7B7B7B;stroke-width:6;stroke-linecap:round;stroke-linejoin:round;}
	.st1{fill:none;stroke:#122147;stroke-width:8;stroke-linecap:round;stroke-linejoin:round;}
	.st2{fill:none;stroke:#3098D2;stroke-width:8;stroke-linecap:round;stroke-linejoin:round;}
	.st3{fill:none;stroke:#FFFFFF;stroke-width:8;stroke-linecap:round;stroke-linejoin:round;}
	.st4{fill:none;stroke:#F47A21;stroke-width:4;stroke-linecap:round;stroke-linejoin:round;}
	.st5{fill:none;stroke:#F47A21;stroke-width:5;stroke-linecap:round;stroke-linejoin:round;}
	.st6{fill:#122147;}
	.st7{fill:none;stroke:#FFFFFF;stroke-width:6;stroke-linecap:round;stroke-linejoin:round;}
	.st8{fill:none;stroke:#122147;stroke-width:4;stroke-linecap:round;stroke-linejoin:round;}
	.st9{fill:#11C610;}
	.st10{fill:none;stroke:#122147;stroke-width:7;stroke-linecap:round;stroke-linejoin:round;}
</style>
<g>
	<path class="st4" d="M22.12,26.51c0,4.85,3.93,8.79,8.79,8.79s8.79-3.93,8.79-8.79s-3.93-8.79-8.79-8.79S22.12,21.66,22.12,26.51"
		/>
	<path class="st4" d="M17.73,57.27v-4.39c0-4.85,3.93-8.79,8.79-8.79h8.79c4.85,0,8.79,3.93,8.79,8.79v4.39"/>
	<path class="st4" d="M46.29,18.01c4.7,1.2,7.54,5.99,6.33,10.69c-0.8,3.11-3.22,5.54-6.33,6.33"/>
	<path class="st4" d="M57.27,57.27v-4.39c-0.02-3.99-2.73-7.46-6.59-8.46"/>
</g>
</svg>
