<?xml version="1.0" encoding="utf-8"?>
<!-- Generator: Adobe Illustrator 26.0.1, SVG Export Plug-In . SVG Version: 6.00 Build 0)  -->
<svg version="1.1" id="Layer_1" xmlns="http://www.w3.org/2000/svg" xmlns:xlink="http://www.w3.org/1999/xlink" x="0px" y="0px"
	 viewBox="0 0 75 75" style="enable-background:new 0 0 75 75;" xml:space="preserve">
<style type="text/css">
	.st0{fill:none;stroke:#7B7B7B;stroke-width:6;stroke-linecap:round;stroke-linejoin:round;}
	.st1{fill:none;stroke:#122147;stroke-width:8;stroke-linecap:round;stroke-linejoin:round;}
	.st2{fill:none;stroke:#3098D2;stroke-width:8;stroke-linecap:round;stroke-linejoin:round;}
	.st3{fill:none;stroke:#FFFFFF;stroke-width:8;stroke-linecap:round;stroke-linejoin:round;}
	.st4{fill:none;stroke:#F47A21;stroke-width:4;stroke-linecap:round;stroke-linejoin:round;}
	.st5{fill:none;stroke:#F47A21;stroke-width:5;stroke-linecap:round;stroke-linejoin:round;}
	.st6{fill:#122147;}
	.st7{fill:none;stroke:#FFFFFF;stroke-width:6;stroke-linecap:round;stroke-linejoin:round;}
	.st8{fill:none;stroke:#122147;stroke-width:4;stroke-linecap:round;stroke-linejoin:round;}
	.st9{fill:#11C610;}
	.st10{fill:none;stroke:#122147;stroke-width:7;stroke-linecap:round;stroke-linejoin:round;}
</style>
<g>
	<path class="st4" d="M29.96,19.9h-5.03c-2.78,0-5.03,2.25-5.03,5.03V55.1c0,2.78,2.25,5.03,5.03,5.03h25.15
		c2.78,0,5.03-2.25,5.03-5.03V24.93c0-2.78-2.25-5.03-5.03-5.03h-5.03"/>
	<path class="st4" d="M29.96,19.9c0-2.78,2.25-5.03,5.03-5.03h5.03c2.78,0,5.03,2.25,5.03,5.03l0,0c0,2.78-2.25,5.03-5.03,5.03
		h-5.03C32.21,24.93,29.96,22.67,29.96,19.9z"/>
</g>
</svg>
