<?xml version="1.0" encoding="utf-8"?>
<!-- Generator: Adobe Illustrator 26.0.1, SVG Export Plug-In . SVG Version: 6.00 Build 0)  -->
<svg version="1.1" id="Layer_1" xmlns="http://www.w3.org/2000/svg" xmlns:xlink="http://www.w3.org/1999/xlink" x="0px" y="0px"
	 viewBox="0 0 75 75" style="enable-background:new 0 0 75 75;" xml:space="preserve">
<style type="text/css">
	.st0{fill:none;stroke:#7B7B7B;stroke-width:6;stroke-linecap:round;stroke-linejoin:round;}
	.st1{fill:none;stroke:#122147;stroke-width:8;stroke-linecap:round;stroke-linejoin:round;}
	.st2{fill:none;stroke:#3098D2;stroke-width:8;stroke-linecap:round;stroke-linejoin:round;}
	.st3{fill:none;stroke:#FFFFFF;stroke-width:8;stroke-linecap:round;stroke-linejoin:round;}
	.st4{fill:none;stroke:#F47A21;stroke-width:4;stroke-linecap:round;stroke-linejoin:round;}
	.st5{fill:none;stroke:#F47A21;stroke-width:5;stroke-linecap:round;stroke-linejoin:round;}
	.st6{fill:#122147;}
	.st7{fill:none;stroke:#FFFFFF;stroke-width:6;stroke-linecap:round;stroke-linejoin:round;}
	.st8{fill:none;stroke:#122147;stroke-width:4;stroke-linecap:round;stroke-linejoin:round;}
	.st9{fill:#11C610;}
	.st10{fill:none;stroke:#122147;stroke-width:7;stroke-linecap:round;stroke-linejoin:round;}
</style>
<g>
	<path class="st4" d="M57.32,22.63v29.73c0,2.74-2.22,4.96-4.96,4.96H27.59c-2.74,0-4.96-2.22-4.96-4.96V22.63
		c0-2.74,2.22-4.96,4.96-4.96h24.78C55.1,17.68,57.32,19.9,57.32,22.63z"/>
	<path class="st4" d="M32.54,47.41h14.87"/>
	<path class="st4" d="M35.02,35.02c0,2.74,2.22,4.96,4.96,4.96s4.96-2.22,4.96-4.96s-2.22-4.96-4.96-4.96S35.02,32.29,35.02,35.02"
		/>
	<path class="st4" d="M17.68,27.59h7.43"/>
	<path class="st4" d="M17.68,37.5h7.43"/>
	<path class="st4" d="M17.68,47.41h7.43"/>
</g>
</svg>
