<?xml version="1.0" encoding="utf-8"?>
<!-- Generator: Adobe Illustrator 26.0.1, SVG Export Plug-In . SVG Version: 6.00 Build 0)  -->
<svg version="1.1" id="Layer_1" xmlns="http://www.w3.org/2000/svg" xmlns:xlink="http://www.w3.org/1999/xlink" x="0px" y="0px"
	 viewBox="0 0 75 75" style="enable-background:new 0 0 75 75;" xml:space="preserve">
<style type="text/css">
	.st0{fill:none;stroke:#7B7B7B;stroke-width:6;stroke-linecap:round;stroke-linejoin:round;}
	.st1{fill:none;stroke:#122147;stroke-width:8;stroke-linecap:round;stroke-linejoin:round;}
	.st2{fill:none;stroke:#3098D2;stroke-width:8;stroke-linecap:round;stroke-linejoin:round;}
	.st3{fill:none;stroke:#FFFFFF;stroke-width:8;stroke-linecap:round;stroke-linejoin:round;}
	.st4{fill:none;stroke:#F47A21;stroke-width:4;stroke-linecap:round;stroke-linejoin:round;}
	.st5{fill:none;stroke:#F47A21;stroke-width:5;stroke-linecap:round;stroke-linejoin:round;}
	.st6{fill:#122147;}
	.st7{fill:none;stroke:#FFFFFF;stroke-width:6;stroke-linecap:round;stroke-linejoin:round;}
	.st8{fill:none;stroke:#122147;stroke-width:4;stroke-linecap:round;stroke-linejoin:round;}
	.st9{fill:#11C610;}
	.st10{fill:none;stroke:#122147;stroke-width:7;stroke-linecap:round;stroke-linejoin:round;}
</style>
<g>
	<path class="st4" d="M20.82,52.39c0,2.83,2.3,5.13,5.13,5.13s5.13-2.3,5.13-5.13s-2.3-5.13-5.13-5.13S20.82,49.56,20.82,52.39"/>
	<path class="st4" d="M46.48,52.39c0,2.83,2.3,5.13,5.13,5.13c2.83,0,5.13-2.3,5.13-5.13s-2.3-5.13-5.13-5.13
		C48.78,47.26,46.48,49.56,46.48,52.39"/>
	<path class="st4" d="M20.82,52.39h-5.13V42.13 M13.12,21.6h28.23v30.8 M31.08,52.39h15.4 M56.75,52.39h5.13V37H41.35 M41.35,24.16
		h12.83L61.88,37"/>
	<path class="st4" d="M15.69,31.86h10.27"/>
</g>
</svg>
