<?xml version="1.0" encoding="utf-8"?>
<!-- Generator: Adobe Illustrator 26.0.1, SVG Export Plug-In . SVG Version: 6.00 Build 0)  -->
<svg version="1.1" id="Layer_1" xmlns="http://www.w3.org/2000/svg" xmlns:xlink="http://www.w3.org/1999/xlink" x="0px" y="0px"
	 viewBox="0 0 75 75" style="enable-background:new 0 0 75 75;" xml:space="preserve">
<style type="text/css">
	.st0{fill:none;stroke:#7B7B7B;stroke-width:6;stroke-linecap:round;stroke-linejoin:round;}
	.st1{fill:none;stroke:#122147;stroke-width:8;stroke-linecap:round;stroke-linejoin:round;}
	.st2{fill:none;stroke:#3098D2;stroke-width:8;stroke-linecap:round;stroke-linejoin:round;}
	.st3{fill:none;stroke:#FFFFFF;stroke-width:8;stroke-linecap:round;stroke-linejoin:round;}
	.st4{fill:none;stroke:#F47A21;stroke-width:4;stroke-linecap:round;stroke-linejoin:round;}
	.st5{fill:none;stroke:#F47A21;stroke-width:5;stroke-linecap:round;stroke-linejoin:round;}
	.st6{fill:#122147;}
	.st7{fill:none;stroke:#FFFFFF;stroke-width:6;stroke-linecap:round;stroke-linejoin:round;}
	.st8{fill:none;stroke:#122147;stroke-width:4;stroke-linecap:round;stroke-linejoin:round;}
	.st9{fill:#11C610;}
	.st10{fill:none;stroke:#122147;stroke-width:7;stroke-linecap:round;stroke-linejoin:round;}
</style>
<g>
	<path class="st8" d="M22.19,26.57h2.19c2.42,0,4.37-1.96,4.37-4.37c0-1.21,0.98-2.19,2.19-2.19h13.12c1.21,0,2.19,0.98,2.19,2.19
		c0,2.42,1.96,4.37,4.37,4.37h2.19c2.42,0,4.37,1.96,4.37,4.37v19.68c0,2.42-1.96,4.37-4.37,4.37H22.19c-2.42,0-4.37-1.96-4.37-4.37
		V30.94C17.82,28.52,19.78,26.57,22.19,26.57"/>
	<path class="st8" d="M30.94,39.69c0,3.62,2.94,6.56,6.56,6.56s6.56-2.94,6.56-6.56c0-3.62-2.94-6.56-6.56-6.56
		S30.94,36.06,30.94,39.69"/>
</g>
</svg>
